<svg xmlns="http://www.w3.org/2000/svg" width="1200" height="900" viewBox="0 0 1200 900">
  <defs>
    <linearGradient id="bg" x1="0" x2="1" y1="0" y2="1">
      <stop offset="0" stop-color="#0a0a0f"/>
      <stop offset="1" stop-color="#0b1220"/>
    </linearGradient>
    <linearGradient id="glow" x1="0" x2="1" y1="0" y2="0">
      <stop offset="0" stop-color="#38bdf8" stop-opacity="0.35"/>
      <stop offset="1" stop-color="#3b82f6" stop-opacity="0.18"/>
    </linearGradient>
    <filter id="blur" x="-30%" y="-30%" width="160%" height="160%">
      <feGaussianBlur stdDeviation="18"/>
    </filter>
  </defs>

  <rect width="1200" height="900" fill="url(#bg)"/>
  <circle cx="220" cy="160" r="180" fill="url(#glow)" filter="url(#blur)"/>
  <circle cx="980" cy="220" r="220" fill="url(#glow)" filter="url(#blur)"/>

  <rect x="170" y="120" width="860" height="660" rx="28" fill="#0b0b12" stroke="#2a2a36" stroke-width="2"/>
  <rect x="220" y="170" width="380" height="38" rx="10" fill="#171726"/>
  <rect x="220" y="230" width="680" height="18" rx="9" fill="#141422" opacity="0.9"/>
  <rect x="220" y="262" width="620" height="18" rx="9" fill="#141422" opacity="0.75"/>

  <rect x="220" y="320" width="320" height="180" rx="18" fill="#10101d" stroke="#2a2a36"/>
  <rect x="560" y="320" width="410" height="180" rx="18" fill="#10101d" stroke="#2a2a36"/>

  <rect x="240" y="350" width="180" height="14" rx="7" fill="#1a1a2a"/>
  <rect x="240" y="380" width="260" height="14" rx="7" fill="#1a1a2a"/>
  <rect x="240" y="410" width="220" height="14" rx="7" fill="#1a1a2a"/>

  <rect x="580" y="350" width="220" height="14" rx="7" fill="#1a1a2a"/>
  <rect x="580" y="380" width="320" height="14" rx="7" fill="#1a1a2a"/>
  <rect x="580" y="410" width="280" height="14" rx="7" fill="#1a1a2a"/>

  <rect x="220" y="530" width="750" height="26" rx="13" fill="#111122" stroke="#2a2a36"/>
  <rect x="220" y="580" width="750" height="150" rx="18" fill="#0f0f1c" stroke="#2a2a36"/>

  <text x="600" y="825" text-anchor="middle" fill="#6b7280" font-size="22" font-family="ui-sans-serif, system-ui">
    Report preview (placeholder)
  </text>
</svg>
